{"title":"Vertical Limit [2000] Bluray 1080p Dual Audio [Hindi DD5.1+Eng5.","uid":9134301,"size":2756717228,"categoryP":"video","categoryS":"hd___movies","magnet":"?xt=urn:btih:ab23917941e30c182e047ae35d257733e475f579&amp;dn=Vertical+Limit+%5B2000%5D+Bluray+1080p+Dual+Audio+%5BHindi+DD5.1%2BEng5.&amp;tr=udp%3A%2F%2Ftracker.openbittorrent.com%3A80&amp;tr=udp%3A%2F%2Fopen.demonii.com%3A1337&amp;tr=udp%3A%2F%2Ftracker.coppersurfer.tk%3A6969&amp;tr=udp%3A%2F%2Fexodus.desync.com%3A6969","seeders":2,"leechers":2,"uploader":"tariq51","files":3,"time":1383387619,"description":"\n[b][i][size=3][color=crimson]RELEASE TITLE:[/color][/size][/i][/b]\n          ======================================\n[b][i][size=3][color=green]Vertical Limit [2000] Bluray 1080p Dual Audio [Hindi DD5.1+Eng5.1] Tariq Qureshi.mkv[/color][/size][/i][/b]\n\n\n                     =================================================\n[b][i][size=2][color=crimson]THANKS TO \n  GOSOFT FOR DD 5.1 HINDI AUDIO SPECIAL THANKS TO MOHSIN PATHAN PERFECT RIP AND SYNC FOR ME[/color][/size][/i][/b]\n\n\n========================================================================\n[IMG]http://i.imgur.com/2klgPFl.jpg[/IMG]\n===========================================\n\n[b][i][size=3][color=green]General:[/color][/size][/i][/b]\n======================================\n[b][i][size=2][color=crimson]IMDB LINK                                :http://www.imdb.com/title/tt0190865/\nFormat                                   : Matroska\nFormat version                           : Version 4 / Version 2\nFile size                                : 2.53 GiB\nDuration                                 : 1h 59mn\nOverall bit rate mode                    : Variable\nOverall bit rate                         : 3 029 Kbps\nEncoded date                             : UTC 2013-11-02 06:43:00\nMovie name                               : Vertical Limit [2000] Bluray 1080p Dual Audio [Hindi DD5.1+Eng5.1] Tariq Qureshi.mkv[/color][/size][/i][/b]\n                                   \n=======================================================================================\n[b][i][size=3][color=green]VIDEO:[/color][/size][/i][/b]\n                            =======================\n\n[b][i][size=2][color=crimson]ID                                       : 1\nFormat                                   : AVC\nFormat/Info                              : Advanced Video Codec\nFormat profile                           : &lt;a class=&quot;__cf_email__&quot; href=&quot;/cdn-cgi/l/email-protection&quot; data-cfemail=&quot;f5bd9c929db5b9c1dbc4&quot;&gt;[email&amp;#160;protected]&lt;/a&gt;&lt;script cf-hash='f9e31' type=&quot;text/javascript&quot;&gt;\n/* &lt;![CDATA[ */!function(){try{var t=&quot;currentScript&quot;in document?document.currentScript:function(){for(var t=document.getElementsByTagName(&quot;script&quot;),e=t.length;e--;)if(t[e].getAttribute(&quot;cf-hash&quot;))return t[e]}();if(t&amp;&amp;t.previousSibling){var e,r,n,i,c=t.previousSibling,a=c.getAttribute(&quot;data-cfemail&quot;);if(a){for(e=&quot;&quot;,r=parseInt(a.substr(0,2),16),n=2;a.length-n;n+=2)i=parseInt(a.substr(n,2),16)^r,e+=String.fromCharCode(i);e=document.createTextNode(e),c.parentNode.replaceChild(e,c)}}}catch(u){}}();/* ]]&gt; */&lt;/script&gt;\nFormat settings, CABAC                   : Yes\nFormat settings, ReFrames                : 3 frames\nCodec ID                                 : V_MPEG4/ISO/AVC\nDuration                                 : 1h 59mn\nBit rate mode                            : Variable\nBit rate                                 : 2 048 Kbps\nMaximum bit rate                         : 62.5 Mbps\nWidth                                    : 1 920 pixels\nHeight                                   : 1 040 pixels\nDisplay aspect ratio                     : 1.85:1\nFrame rate mode                          : Constant\nFrame rate                               : 25.000 fps\nLanguage                                 : English\nDefault                                  : Yes\nForced                                   : No[/color][/size][/i][/b]\n=====================================================================================\n[b][i][size=3][color=green]AUDIO:1[/color][/size][/i][/b]\n          ================\n[b][i][size=2][color=crimson]ID                                       : 2\nFormat                                   : AC-3\nFormat/Info                              : Audio Coding 3\nMode extension                           : CM (complete main)\nFormat settings, Endianness              : Big\nCodec ID                                 : A_AC3\nDuration                                 : 1h 59mn\nBit rate mode                            : Constant\nBit rate                                 : 448 Kbps\nChannel count                            : 6 channels\nChannel positions                        : Front: L C R, Side: L R, LFE\nSampling rate                            : 48.0 KHz\nBit depth                                : 16 bits\nCompression mode                         : Lossy\nDelay relative to video                  : 2s 500ms\nStream size                              : 383 MiB (15%)\nTitle                                    : 5.1 Tariq Qureshi\nLanguage                                 : Hindi\nDefault                                  : Yes\nForced                                   : No\n\n===================================================================================\n[b][i][size=3][color=green]AUDIO:2[/color][/size][/i][/b]\n            ================\n[b][i][size=2][color=crimson]ID                                       : 3\nFormat                                   : AC-3\nFormat/Info                              : Audio Coding 3\nMode extension                           : CM (complete main)\nFormat settings, Endianness              : Big\nCodec ID                                 : A_AC3\nDuration                                 : 1h 59mn\nBit rate mode                            : Constant\nBit rate                                 : 448 Kbps\nChannel count                            : 6 channels\nChannel positions                        : Front: L C R, Side: L R, LFE\nSampling rate                            : 48.0 KHz\nBit depth                                : 16 bits\nCompression mode                         : Lossy\nStream size                              : 383 MiB (15%)\nTitle                                    : 5.1 Tariq Qureshi\nLanguage                                 : English\nDefault                                  : No\nForced                                   : No\n\nText\nID                                       : 4\nFormat                                   : UTF-8\nCodec ID                                 : S_TEXT/UTF8\nCodec ID/Info                            : UTF-8 Plain Text\nTitle                                    : ENG\nLanguage                                 : English\nDefault                                  : Yes\nForced                                   : No[/color][/size][/i][/b]\n\n[/color][/size][/i][/b]\n===================================================================================\n[b][i][size=3][color=green][IMG]http://i.imgur.com/Q3KFG70.gif[/IMG][/color][/size][/i][/b]\n            =========================\n[IMG]http://i.imgur.com/zy5kwdw.png[/IMG]\n[IMG]http://i.imgur.com/TcSV4OP.png[/IMG]\n[IMG]http://i.imgur.com/PHXhrVv.png[/IMG]\n[IMG]http://i.imgur.com/aPIHB5J.png[/IMG]\n[IMG]http://i.imgur.com/v6goRw4.png[/IMG]\n[IMG]http://i.imgur.com/iE322zS.png[/IMG]\n[IMG]http://i.imgur.com/f7WQ4F4.png[/IMG]\n===================================================================================\n[b][i][size=3][color=crimson]HEY GUYS M TARIQ QURESHI ~  HOPE U LIKED MY WORK \nFOR MY AND MY GROUP UPLOADS JOIN\n======================================================================\nOur group\n========================================================================\nCONT ME=OR=\n==================================================================================\n[b][i][size=3][color=green]SEEDING FROM HIGH SPEED SEEDBOX[/color][/size][/i][/b]","torrent":{"xt":"urn:btih:ab23917941e30c182e047ae35d257733e475f579","amp;dn":"Vertical+Limit+%5B2000%5D+Bluray+1080p+Dual+Audio+%5BHindi+DD5.1%2BEng5.","amp;tr":["udp%3A%2F%2Ftracker.openbittorrent.com%3A80","udp%3A%2F%2Fopen.demonii.com%3A1337","udp%3A%2F%2Ftracker.coppersurfer.tk%3A6969","udp%3A%2F%2Fexodus.desync.com%3A6969"],"infoHash":"ab23917941e30c182e047ae35d257733e475f579","infoHashBuffer":{"type":"Buffer","data":[171,35,145,121,65,227,12,24,46,4,122,227,93,37,119,51,228,117,245,121]},"announce":[],"urlList":[]}}